<svg xmlns="http://www.w3.org/2000/svg" xmlns:xlink="http://www.w3.org/1999/xlink" width="340.54" height="153.15" viewBox="0 0 340.54 153.15">
  <defs>
    <clipPath id="clip-Artboard_1">
      <rect width="340.54" height="153.15"/>
    </clipPath>
  </defs>
  <g id="Artboard_1" data-name="Artboard 1" clip-path="url(#clip-Artboard_1)">
    <g id="Group_9" data-name="Group 9" transform="translate(-66.588 -44.788)">
      <g id="Group_7" data-name="Group 7">
        <g id="Group_5" data-name="Group 5">
          <path id="Path_32" data-name="Path 32" d="M268.537,112.883c-6.7,1.015-8.122,2.028-11.345,9.253-3.223,7.1-6.7,15.718-15.6,37.773-8.379,20.281-10.7,28.14-12.763,34.731-.774,2.662-2.192,3.295-3.868,3.295-4.126,0-7.864-2.915-7.864-6.084,0-1.648.9-2.788,2.836-4.436,4.125-3.169,7.091-6.211,8.638-9.38,2.707-5.324,4.642-9.76,5.286-11.408a7.3,7.3,0,0,0-.258-5.2c-5.028-14.45-11.99-30.04-15.857-39.167-2.837-6.971-4-8.492-11.088-9.38v-3.422H232.7v3.422c-5.93.888-6.575,2.155-4.9,6.845L240.3,150.91c3.61-8.746,8.766-22.816,11.474-30.8,1.547-4.816.644-6.21-6.833-7.225v-3.422h23.593Z" fill="#1a2744"/>
          <path id="Path_33" data-name="Path 33" d="M333.772,161.937c-2.708.507-12.378,2.029-19.984,4.69v-8.239c-2.32,1.4-5.673,3.169-7.993,4.563-5.157,2.915-8.638,3.676-10.186,3.676-10.313,0-23.979-10.14-23.979-27.886,0-17.618,15.729-30.8,33.392-30.8,1.8,0,6.059.253,8.766,1.394V90.7c0-8.112-.9-8.365-10.056-9.126V78.28c6.446-.888,15.471-2.662,20.242-4.31V150.4c0,6.591.9,7.225,5.672,7.731l4.126.254Zm-19.984-42.589c-2.965-4.437-8.509-6.465-13.537-6.465-6.189,0-17.147,4.057-17.147,22.309,0,15.337,9.67,23.449,17.921,23.576,4.641,0,9.669-2.281,12.763-4.563Z" fill="#1a2744"/>
          <path id="Path_34" data-name="Path 34" d="M407.128,144.952c-.773,3.3-4.254,16.351-5.544,20.154H338.927v-3.549c11.99-.887,12.893-2.028,12.893-12.422V99.067c0-11.281-1.419-11.915-11.088-12.8V82.716h39.451c12.118,0,17.146-.127,18.694-.254.129,3.169.644,12.676,1.16,19.394l-3.868.634a41.806,41.806,0,0,0-3.868-9.634c-2.062-4.182-5.028-5.07-12.763-5.07H367.291c-4,0-4.255.381-4.255,4.056v28.013h14.311c9.669,0,10.313-1.9,11.861-10.521h4v26.112h-4c-1.677-9.127-2.708-10.394-11.991-10.394H363.036v25.224c0,8.873,2.836,9.633,9.283,9.76h11.989c7.865,0,15.154-1.141,11.99-4.437,2.45-2.661,5.157-7.858,6.962-11.661Z" fill="#1a2744"/>
        </g>
        <g id="Group_6" data-name="Group 6">
          <path id="Path_35" data-name="Path 35" d="M347.57,68.81V67.775c3.083-.332,3.383-.48,3.383-3.621V49.482c0-3.179-.3-3.327-3.383-3.659V44.788h10.074v1.035c-3.12.332-3.421.48-3.421,3.659V64.154c0,3.178.3,3.289,3.421,3.621V68.81Z" fill="#7d3617"/>
          <path id="Path_36" data-name="Path 36" d="M370.5,68.81V67.775c2.18-.221,2.406-.48,2.406-2.993v-6.1c0-2.587-.94-4.324-3.421-4.324a6.622,6.622,0,0,0-4.173,1.921V64.93c0,2.55.226,2.624,2.444,2.845V68.81h-8.119V67.775c2.48-.258,2.706-.406,2.706-2.845V57.316c0-2.4-.263-2.513-2.293-2.845V53.51a21.576,21.576,0,0,0,5.262-1.479v2.92c.753-.517,1.579-1.072,2.556-1.7a5.83,5.83,0,0,1,3.121-1.109c3.007,0,4.886,2.181,4.886,5.765V64.93c0,2.513.226,2.624,2.406,2.845V68.81Z" fill="#7d3617"/>
          <path id="Path_37" data-name="Path 37" d="M387.644,68.773a3.832,3.832,0,0,1-1.617.48c-2.4,0-3.683-1.441-3.683-4.4V54.1H379.75l-.15-.443,1.015-1.072h1.729v-3.1c.714-.74,1.8-1.7,2.519-2.44l.564.074c-.076,1.552-.114,3.7-.114,5.47H389.6a1.14,1.14,0,0,1,-.226,1.515h-4.06v9.461c0,2.994,1.2,3.548,2.18,3.548a5.456,5.456,0,0,0,2.294-.591l.338.961Z" fill="#7d3617"/>
          <path id="Path_38" data-name="Path 38" d="M395.35,69.327a2.221,2.221,0,0,1-2.294-2.365A2.262,2.262,0,0,1,395.35,64.6a2.323,2.323,0,0,1,2.367,2.365A2.279,2.279,0,0,1,395.35,69.327Z" fill="#7d3617"/>
        </g>
        <path id="Path_39" data-name="Path 39" d="M206.259,80.83a18.164,18.164,0,0,1-2.862,9.381l-11.08,18.866c-2.162-6.207-7.3-10.136-12.323-13.982l-1.348-1.035a16.606,16.606,0,0,1-6.561-13.23,17.089,17.089,0,0,1,34.174,0Zm-86.034,55.819-.42-.495L93.043,71.286a13.732,13.732,0,0,0-11.33-8.343l-.444-.025a13.747,13.747,0,0,0-6.114.932A13.439,13.439,0,0,0,67.6,81.434l6.78,16.441c3.276,7.973,6.586,16.079,9.9,24.186C88.541,132.515,92.81,142.969,97,153.123c4.13,10.008,7.958,13.718,15.168,14.705,8.777,1.2,14.459-5.73,24.567-19.119q1.192-1.579,2.459-3.245C132.16,145.769,125.445,142.8,120.225,136.649Zm63.347,13.612a14.184,14.184,0,0,0-.593-1.819L167.3,110.431l-.611-1.48L150.88,71.5a14.405,14.405,0,0,0-11.408-8.721,14.575,14.575,0,0,0-7.388.906,14.124,14.124,0,0,0-7.948,18.478l18.712,44.5,3.25,7.877,10.138,24.574a14.535,14.535,0,0,0,18.8,7.816,14.145,14.145,0,0,0,8.614-16.354l-.364.46Zm12.995-8.071.3-.5c-.038-.1-.075-.2-.116-.295Z" fill="#7d3617"/>
      </g>
    </g>
  </g>
</svg>
